<svg width="1419" height="243" viewBox="0 0 1419 243" version="1.1" xmlns="http://www.w3.org/2000/svg" xmlns:xlink="http://www.w3.org/1999/xlink">
<title>logo_withtext</title>
<desc>Created using Figma</desc>
<g id="Canvas" transform="matrix(3 0 0 3 2022 162)">
<g id="logo_withtext">
<mask id="mask0_alpha" mask-type="alpha">
<g id="Rectangle 4">
<use xlink:href="#path0_fill" transform="translate(-674 -54)" fill="#C4C4C4"/>
</g>
</mask>
<g id="bludisc" mask="url(#mask0_alpha)">
<use xlink:href="#path1_fill" transform="translate(-579 -62)" fill="#162C9B"/>
<use xlink:href="#path2_fill" transform="translate(-579 -62)" fill="#26A7FF"/>
</g>
<g id="icon_original 2" mask="url(#mask0_alpha)">
<g id="Canvas">
<g id="icon original">
<mask id="mask1_alpha" mask-type="alpha">
<g id="mask0 alpha">
<g id="bg">
<g id="Vector">
<use xlink:href="#path3_fill" transform="matrix(3 0 0 3 -675 -52)"/>
</g>
</g>
</g>
</mask>
<g id="&#195;&#160;&#194;&#184;&#194;&#139;&#195;&#160;&#194;&#184;&#194;&#173;&#195;&#160;&#194;&#184;&#194;&#135;" mask="url(#mask1_alpha)">
<g id="Subtract">
<g id="Vector">
<use xlink:href="#path4_fill" transform="matrix(3 0 0 3 -675 -52)" fill="#162C9B"/>
</g>
</g>
</g>
<g id="cd" mask="url(#mask1_alpha)">
<mask id="mask2_alpha" mask-type="alpha">
<g id="mask1 alpha">
<g id="Polygon">
<g id="Vector">
<use xlink:href="#path5_fill" transform="matrix(1.83606e-16 -3 3 1.83788e-16 -629.545 34.7785)" fill="#FFFFFF"/>
</g>
</g>
</g>
</mask>
<g id="Subtract" mask="url(#mask2_alpha)">
<g id="Vector">
<use xlink:href="#path6_fill" transform="matrix(3 0 0 3 -678.117 -54.5977)" fill="#26A7FF"/>
</g>
</g>
</g>
<g id="Rectangle 2" mask="url(#mask1_alpha)">
<g id="Vector">
<use xlink:href="#path7_fill" transform="matrix(2.12121 2.12143 -2.12121 2.12143 -635.585 -12.4304)" fill="#000000" fill-opacity="0.1"/>
</g>
</g>
</g>
</g>
</g>
<g id="Rectangle 3" mask="url(#mask0_alpha)">
<use xlink:href="#path8_fill" transform="matrix(0.707107 -0.707107 0.707107 0.707107 -335 -44)" fill="#26A7FF"/>
</g>
</g>
</g>
<defs>
<path id="path0_fill" d="M 0 0L 479 0L 479 83L 0 83L 0 0Z"/>
<path id="path1_fill" d="M 14.1 9.9C 12.5667 9.9 11.3333 10.3667 10.4 11.3C 9.46667 12.2333 9 13.4667 9 15L 9 60.6C 9 65.8 10.2 70.5333 12.6 74.8C 15.0667 79 18.3667 82.3333 22.5 84.8C 26.7 87.2 31.3667 88.4 36.5 88.4C 41.6333 88.4 46.3 87.2 50.5 84.8C 54.7667 82.3333 58.1 79 60.5 74.8C 62.9 70.5333 64.1 65.8 64.1 60.6C 64.1 55.4 62.9667 50.7 60.7 46.5C 58.5 42.2333 55.4333 38.9 51.5 36.5C 47.6333 34.1 43.3 32.9 38.5 32.9C 34.6333 32.9 31.0333 33.7 27.7 35.3C 24.3667 36.9 21.5333 39.1333 19.2 42L 19.2 15C 19.2 13.4667 18.7 12.2333 17.7 11.3C 16.7667 10.3667 15.5667 9.9 14.1 9.9ZM 36.5 79.4C 33.1667 79.4 30.1333 78.6 27.4 77C 24.7333 75.3333 22.6333 73.0667 21.1 70.2C 19.5667 67.3333 18.8 64.1333 18.8 60.6C 18.8 57.0667 19.5667 53.9 21.1 51.1C 22.6333 48.2333 24.7333 46 27.4 44.4C 30.1333 42.7333 33.1667 41.9 36.5 41.9C 39.8333 41.9 42.8333 42.7333 45.5 44.4C 48.2333 46 50.3667 48.2333 51.9 51.1C 53.5 53.9 54.3 57.0667 54.3 60.6C 54.3 64.1333 53.5 67.3333 51.9 70.2C 50.3667 73.0667 48.2333 75.3333 45.5 77C 42.8333 78.6 39.8333 79.4 36.5 79.4ZM 77.3125 14.9C 77.3125 13.4333 77.7792 12.2333 78.7125 11.3C 79.6458 10.3667 80.8458 9.9 82.3125 9.9C 83.7792 9.9 84.9792 10.3667 85.9125 11.3C 86.8458 12.2333 87.3125 13.4333 87.3125 14.9L 87.3125 69.5C 87.3125 71.9667 87.7792 74 88.7125 75.6C 89.6458 77.2 90.8458 78 92.3125 78L 94.8125 78C 96.1458 78 97.2125 78.4667 98.0125 79.4C 98.8792 80.3333 99.3125 81.5333 99.3125 83C 99.3125 84.4667 98.6792 85.6667 97.4125 86.6C 96.1458 87.5333 94.5125 88 92.5125 88L 92.3125 88C 89.4458 88 86.8458 87.2333 84.5125 85.7C 82.2458 84.1 80.4792 81.9 79.2125 79.1C 77.9458 76.2333 77.3125 73.0333 77.3125 69.5L 77.3125 14.9ZM 154.393 33.2C 155.926 33.2 157.16 33.6667 158.093 34.6C 159.026 35.5333 159.493 36.7667 159.493 38.3L 159.493 82.9C 159.493 84.3667 159.026 85.6 158.093 86.6C 157.16 87.5333 155.926 88 154.393 88C 152.926 88 151.693 87.5333 150.693 86.6C 149.76 85.6 149.293 84.3667 149.293 82.9L 149.293 81.8C 147.16 83.9333 144.626 85.6 141.693 86.8C 138.76 87.9333 135.626 88.5 132.293 88.5C 127.693 88.5 123.56 87.5 119.893 85.5C 116.226 83.5 113.36 80.6 111.293 76.8C 109.226 72.9333 108.193 68.3 108.193 62.9L 108.193 38.3C 108.193 36.8333 108.66 35.6333 109.593 34.7C 110.593 33.7 111.826 33.2 113.293 33.2C 114.76 33.2 115.96 33.7 116.893 34.7C 117.893 35.6333 118.393 36.8333 118.393 38.3L 118.393 62.9C 118.393 68.3 119.826 72.4 122.693 75.2C 125.626 77.9333 129.493 79.3 134.293 79.3C 137.093 79.3 139.626 78.7333 141.893 77.6C 144.226 76.4667 146.026 74.9333 147.293 73C 148.626 71.0667 149.293 68.9 149.293 66.5L 149.293 38.3C 149.293 36.7667 149.76 35.5333 150.693 34.6C 151.693 33.6667 152.926 33.2 154.393 33.2Z"/>
<path id="path2_fill" d="M 224.657 9.9C 226.19 9.9 227.424 10.3667 228.357 11.3C 229.29 12.2333 229.757 13.4667 229.757 15L 229.757 60.6C 229.757 65.8 228.524 70.5333 226.057 74.8C 223.657 79 220.357 82.3333 216.157 84.8C 212.024 87.2 207.39 88.4 202.257 88.4C 197.124 88.4 192.424 87.2 188.157 84.8C 183.957 82.3333 180.657 79 178.257 74.8C 175.857 70.5333 174.657 65.8 174.657 60.6C 174.657 55.4 175.757 50.7 177.957 46.5C 180.224 42.2333 183.29 38.9 187.157 36.5C 191.09 34.1 195.457 32.9 200.257 32.9C 204.124 32.9 207.724 33.7 211.057 35.3C 214.39 36.9 217.224 39.1333 219.557 42L 219.557 15C 219.557 13.4667 220.024 12.2333 220.957 11.3C 221.957 10.3667 223.19 9.9 224.657 9.9ZM 202.257 79.4C 205.59 79.4 208.59 78.6 211.257 77C 213.99 75.3333 216.124 73.0667 217.657 70.2C 219.19 67.3333 219.957 64.1333 219.957 60.6C 219.957 57.0667 219.19 53.9 217.657 51.1C 216.124 48.2333 213.99 46 211.257 44.4C 208.59 42.7333 205.59 41.9 202.257 41.9C 198.924 41.9 195.89 42.7333 193.157 44.4C 190.49 46 188.357 48.2333 186.757 51.1C 185.224 53.9 184.457 57.0667 184.457 60.6C 184.457 64.1333 185.224 67.3333 186.757 70.2C 188.357 73.0667 190.49 75.3333 193.157 77C 195.89 78.6 198.924 79.4 202.257 79.4ZM 248.77 38.4C 248.77 36.8667 249.236 35.6333 250.17 34.7C 251.17 33.7667 252.403 33.3 253.87 33.3C 255.403 33.3 256.636 33.7667 257.57 34.7C 258.503 35.6333 258.97 36.8667 258.97 38.4L 258.97 82.9C 258.97 84.3667 258.503 85.6 257.57 86.6C 256.636 87.5333 255.403 88 253.87 88C 252.403 88 251.17 87.5333 250.17 86.6C 249.236 85.6 248.77 84.3667 248.77 82.9L 248.77 38.4ZM 253.87 11.2C 255.67 11.2 257.203 11.8667 258.47 13.2C 259.803 14.4667 260.47 16 260.47 17.8C 260.47 19.6 259.803 21.1667 258.47 22.5C 257.203 23.7667 255.67 24.4 253.87 24.4C 252.07 24.4 250.503 23.7667 249.17 22.5C 247.903 21.1667 247.27 19.6 247.27 17.8C 247.27 16 247.903 14.4667 249.17 13.2C 250.503 11.8667 252.07 11.2 253.87 11.2ZM 297.145 32.9C 301.479 32.9 305.345 33.6 308.745 35C 312.212 36.4 314.945 38.3333 316.945 40.8C 317.812 41.8667 318.245 42.9333 318.245 44C 318.245 45.1333 317.679 46.1667 316.545 47.1C 315.812 47.6333 314.879 47.9 313.745 47.9C 312.012 47.9 310.445 47.2667 309.045 46C 307.379 44.4667 305.612 43.4 303.745 42.8C 301.879 42.1333 299.612 41.8 296.945 41.8C 293.879 41.8 291.345 42.3333 289.345 43.4C 287.412 44.4 286.445 45.8333 286.445 47.7C 286.445 49.0333 286.779 50.1667 287.445 51.1C 288.112 51.9667 289.379 52.8 291.245 53.6C 293.112 54.3333 295.812 55.0667 299.345 55.8C 306.612 57.2667 311.745 59.3 314.745 61.9C 317.812 64.5 319.345 67.8667 319.345 72C 319.345 75.0667 318.512 77.8667 316.845 80.4C 315.179 82.8667 312.712 84.8333 309.445 86.3C 306.245 87.7 302.379 88.4 297.845 88.4C 293.312 88.4 289.045 87.7 285.045 86.3C 281.045 84.9 277.912 83.0667 275.645 80.8C 274.779 79.9333 274.345 78.9 274.345 77.7C 274.345 76.1 275.012 74.8 276.345 73.8C 277.612 72.8667 278.779 72.4 279.845 72.4C 281.179 72.4 282.445 73 283.645 74.2C 284.912 75.6 286.812 76.8333 289.345 77.9C 291.879 78.9 294.579 79.4 297.445 79.4C 301.245 79.4 304.179 78.7667 306.245 77.5C 308.379 76.2333 309.445 74.5333 309.445 72.4C 309.445 70.3333 308.412 68.6333 306.345 67.3C 304.279 65.9 300.779 64.7333 295.845 63.8C 283.045 61.3333 276.645 56.0667 276.645 48C 276.645 44.7333 277.612 41.9667 279.545 39.7C 281.479 37.4333 284.012 35.7333 287.145 34.6C 290.279 33.4667 293.612 32.9 297.145 32.9ZM 356.542 32.9C 364.409 32.9 370.942 35.9 376.142 41.9C 376.809 42.6333 377.142 43.5 377.142 44.5C 377.142 45.9667 376.409 47.2 374.942 48.2C 374.276 48.6667 373.509 48.9 372.642 48.9C 371.109 48.9 369.809 48.3 368.742 47.1C 367.076 45.3 365.242 44 363.242 43.2C 361.309 42.3333 359.076 41.9 356.542 41.9C 351.409 41.9 347.242 43.6333 344.042 47.1C 340.842 50.5 339.242 55.0333 339.242 60.7C 339.242 64.3 339.976 67.5333 341.442 70.4C 342.976 73.2 345.076 75.4 347.742 77C 350.476 78.6 353.576 79.4 357.042 79.4C 361.576 79.4 365.242 78.2333 368.042 75.9C 369.309 74.9667 370.542 74.5 371.742 74.5C 372.676 74.5 373.542 74.8 374.342 75.4C 375.609 76.4667 376.242 77.6667 376.242 79C 376.242 80 375.842 80.9 375.042 81.7C 370.242 86.1667 364.242 88.4 357.042 88.4C 351.776 88.4 347.042 87.2 342.842 84.8C 338.642 82.4 335.342 79.1 332.942 74.9C 330.609 70.6333 329.442 65.9 329.442 60.7C 329.442 55.3667 330.576 50.6 332.842 46.4C 335.176 42.1333 338.409 38.8333 342.542 36.5C 346.676 34.1 351.342 32.9 356.542 32.9Z"/>
<path id="path3_fill" d="M 0 0L 26.6667 0L 26.6667 26.3333L 0 26.3333L 0 0Z"/>
<path id="path4_fill" fill-rule="evenodd" d="M 13.5222 12.8443C 13.3216 13.0468 13.3216 13.3732 13.5222 13.5757L 26.15 26.3333L 0.692641 26.3333C 0.310106 26.3333 0 26.023 0 25.6403L 0 0.692982C 0 0.310259 0.310106 0 0.692641 0L 26.2357 0L 13.5222 12.8443Z"/>
<path id="path5_fill" d="M 15.7162 0L 31.4323 15.3896L -4.91694e-08 15.3896L 15.7162 0Z"/>
<path id="path6_fill" fill-rule="evenodd" d="M 13.8528 27.7193C 21.5036 27.7193 27.7056 21.5142 27.7056 13.8597C 27.7056 6.20518 21.5036 0 13.8528 0C 6.20212 0 0 6.20518 0 13.8597C 0 21.5142 6.20212 27.7193 13.8528 27.7193ZM 15.3247 18.1908C 17.7155 18.1908 19.6537 16.2517 19.6537 13.8597C 19.6537 11.4676 17.7155 9.52851 15.3247 9.52851C 12.9339 9.52851 10.9957 11.4676 10.9957 13.8597C 10.9957 16.2517 12.9339 18.1908 15.3247 18.1908Z"/>
<path id="path7_fill" d="M 0.0292674 0.259375C 0.0295052 0.115561 0.146528 -0.000698905 0.29034 3.16302e-06L 17.8713 0.0858302C 18.1021 0.0869577 18.217 0.366105 18.0537 0.52934L 0.443514 18.1396C 0.2797 18.3034 -0.000382761 18.1871 3.92688e-07 17.9555L 0.0292674 0.259375Z"/>
<path id="path8_fill" d="M 0 2C 0 0.895431 0.895431 0 2 0L 12 0C 13.1046 0 14 0.895431 14 2L 14 12C 14 13.1046 13.1046 14 12 14L 2 14C 0.895431 14 0 13.1046 0 12L 0 2Z"/>
</defs>
</svg>
